/* XPM */
static char * bitcoin16_xpm[] = {
"16 16 193 2",
"  	c None",
". 	c #F9F003",
"+ 	c #FCF602",
"@ 	c #FCF802",
"# 	c #FCF801",
"$ 	c #FBF602",
"% 	c #F9F002",
"& 	c #F6E804",
"* 	c #FBF404",
"= 	c #FEF904",
"- 	c #EBE609",
"; 	c #F0EB07",
"> 	c #FEFA04",
", 	c #FBF304",
"' 	c #F6E306",
") 	c #FDF408",
"! 	c #FDF308",
"~ 	c #FFF707",
"{ 	c #F5EC09",
"] 	c #E0D40F",
"^ 	c #D7CC0A",
"/ 	c #F8F009",
"( 	c #FFF507",
"_ 	c #F3D907",
": 	c #FFF20A",
"< 	c #D7CC12",
"[ 	c #FCEE0A",
"} 	c #D5C914",
"| 	c #E4D30F",
"1 	c #FFF10A",
"2 	c #FFF209",
"3 	c #D8C717",
"4 	c #DED00E",
"5 	c #FFF30A",
"6 	c #D1C613",
"7 	c #FBED09",
"8 	c #F1D708",
"9 	c #F8E00C",
"0 	c #FDEB0E",
"a 	c #E9D613",
"b 	c #E8D414",
"c 	c #F0DE0D",
"d 	c #E1D00E",
"e 	c #FCE90E",
"f 	c #EDDC0E",
"g 	c #E6D50F",
"h 	c #D1BE19",
"i 	c #DECD0E",
"j 	c #FFED0F",
"k 	c #F8DF0B",
"l 	c #EFC709",
"m 	c #FBE712",
"n 	c #FAE411",
"o 	c #E0CA17",
"p 	c #FDE414",
"q 	c #E4CD13",
"r 	c #FDE711",
"s 	c #FBE412",
"t 	c #FDE611",
"u 	c #D6C119",
"v 	c #FEE414",
"w 	c #E2CC12",
"x 	c #FEE712",
"y 	c #FCE712",
"z 	c #E9C209",
"A 	c #F2CC0F",
"B 	c #FAE015",
"C 	c #FFE714",
"D 	c #D4BC1B",
"E 	c #FADD17",
"F 	c #E1C815",
"G 	c #FEE314",
"H 	c #FCE115",
"I 	c #FCE114",
"J 	c #FFE414",
"K 	c #DDC41A",
"L 	c #E5CB16",
"M 	c #FBE014",
"N 	c #EFC90F",
"O 	c #F2C813",
"P 	c #F9DA17",
"Q 	c #D8BE1D",
"R 	c #FCDC18",
"S 	c #F9D918",
"T 	c #DDC116",
"U 	c #DBBF1C",
"V 	c #D7BC1B",
"W 	c #D7BB1B",
"X 	c #EED018",
"Y 	c #E1C51C",
"Z 	c #FEDD19",
"` 	c #E1C517",
" .	c #F9DA18",
"..	c #EDC412",
"+.	c #F1C215",
"@.	c #FBD71B",
"#.	c #D9BB1F",
"$.	c #F9D61B",
"%.	c #F8D51B",
"&.	c #DBBC18",
"*.	c #E1C120",
"=.	c #E7C619",
"-.	c #D7BA20",
";.	c #D9BA16",
">.	c #E3C21E",
",.	c #FBD81B",
"'.	c #E1C119",
").	c #FCD81C",
"!.	c #EBBD14",
"~.	c #EDB615",
"{.	c #FCD51E",
"].	c #DCBA21",
"^.	c #F8D21E",
"/.	c #FAD31E",
"(.	c #DCBA1B",
"_.	c #DDBA22",
":.	c #E1BE19",
"<.	c #E3BF1E",
"[.	c #E0BD1E",
"}.	c #E2BE21",
"|.	c #FCD51D",
"1.	c #F8D21D",
"2.	c #E2BF1B",
"3.	c #F8D11F",
"4.	c #E7B115",
"5.	c #E39B11",
"6.	c #FBD123",
"7.	c #E0BA22",
"8.	c #F7CE20",
"9.	c #F8CF20",
"0.	c #DFB91E",
"a.	c #C9A723",
"b.	c #D5B11D",
"c.	c #C0A021",
"d.	c #D4AF1D",
"e.	c #DDB724",
"f.	c #FBD11F",
"g.	c #F7CE1F",
"h.	c #D8B41C",
"i.	c #FCD224",
"j.	c #DC950F",
"k.	c #EEB11E",
"l.	c #DBB024",
"m.	c #FBCE22",
"n.	c #F7CA21",
"o.	c #D9B11F",
"p.	c #FFCC26",
"q.	c #FAC926",
"r.	c #FCCB25",
"s.	c #D6AF25",
"t.	c #F7CB21",
"u.	c #FFD323",
"v.	c #C19C1D",
"w.	c #DF8A14",
"x.	c #F8C228",
"y.	c #C49B22",
"z.	c #FDCC25",
"A.	c #F8C924",
"B.	c #D8AA24",
"C.	c #F4C028",
"D.	c #F4C029",
"E.	c #E1B12A",
"F.	c #EABD25",
"G.	c #FFD126",
"H.	c #A28119",
"I.	c #F5BE28",
"J.	c #D28212",
"K.	c #DE8817",
"L.	c #F8BD2C",
"M.	c #BD9223",
"N.	c #BA931F",
"O.	c #DCAE26",
"P.	c #EDB62B",
"Q.	c #F2BA2C",
"R.	c #CBA12A",
"S.	c #AC891B",
"T.	c #9F7A1C",
"U.	c #F6BB2B",
"V.	c #D58216",
"W.	c #D87916",
"X.	c #EA9C24",
"Y.	c #F9BE32",
"Z.	c #BC8C25",
"`.	c #DFA82C",
" +	c #EBB12E",
".+	c #B38623",
"++	c #F6BB31",
"@+	c #CE7314",
"#+	c #D66E15",
"$+	c #E08821",
"%+	c #E28E24",
"&+	c #DF8620",
"*+	c #D26C15",
"          . + @ # $ %           ",
"      & * = = - ; = > , &       ",
"    ' ) ! ~ { ] ^ / ( ! ! '     ",
"  _ : < [ } | 1 2 3 4 5 6 7 8   ",
"  9 0 a b c d 0 e f g h i j k   ",
"l m n o p q r n s t u v w x y z ",
"A B C D E F G H I J K E L M B N ",
"O P Q R S T U V W X Y S Z `  ...",
"+.@.#.$.%.&.*.=.-.;.>.,.%.'.).!.",
"~.{.].^./.(._.:.<.[.}.|.1.2.3.4.",
"5.6.7.8.9.0.a.b.c.d.e.f.g.h.i.j.",
"  k.l.m.n.o.p.q.q.r.s.t.u.v.k.  ",
"  w.x.y.z.A.B.C.D.E.F.G.H.I.J.  ",
"    K.L.M.N.O.P.Q.R.S.T.U.V.    ",
"      W.X.Y.Z.`. +.+++X.@+      ",
"          #+$+%+%+&+*+          "};
