/* XPM */
static char * bitcoin32_xpm[] = {
"32 32 607 2",
"  	c None",
". 	c #F9F203",
"+ 	c #F9F202",
"@ 	c #F8F202",
"# 	c #F9F302",
"$ 	c #F8EF03",
"% 	c #FBF403",
"& 	c #FDF702",
"* 	c #FEFB02",
"= 	c #FFFD02",
"- 	c #FFFD01",
"; 	c #FFFE01",
"> 	c #FCF702",
", 	c #FBF402",
"' 	c #F8EE03",
") 	c #F7EB04",
"! 	c #FBF404",
"~ 	c #FEFA03",
"{ 	c #FFFC03",
"] 	c #FEFA04",
"^ 	c #FFFA03",
"/ 	c #FBF304",
"( 	c #F6EA04",
"_ 	c #F5E604",
": 	c #F9ED04",
"< 	c #FEF805",
"[ 	c #FEF705",
"} 	c #FDF805",
"| 	c #FEF804",
"1 	c #B6AE18",
"2 	c #CEC512",
"3 	c #F4EE04",
"4 	c #FDF705",
"5 	c #F8EC04",
"6 	c #F6E604",
"7 	c #F5E205",
"8 	c #FAF006",
"9 	c #FEF506",
"0 	c #FDF506",
"a 	c #FEF507",
"b 	c #FDF406",
"c 	c #FDF507",
"d 	c #CDC512",
"e 	c #F6E70E",
"f 	c #FFF10C",
"g 	c #CDC509",
"h 	c #FFF607",
"i 	c #FEF406",
"j 	c #FEF607",
"k 	c #FAEE06",
"l 	c #F4DE06",
"m 	c #FBEE08",
"n 	c #FDF309",
"o 	c #FDF209",
"p 	c #FBF108",
"q 	c #D7CD10",
"r 	c #FDF208",
"s 	c #F3E909",
"t 	c #D6C810",
"u 	c #D9CC0D",
"v 	c #CBC207",
"w 	c #FFF807",
"x 	c #D6CC11",
"y 	c #F8ED08",
"z 	c #F3DD06",
"A 	c #F3DA07",
"B 	c #FAE909",
"C 	c #FDEF0A",
"D 	c #FFF808",
"E 	c #FEF10A",
"F 	c #FDF00A",
"G 	c #FFF608",
"H 	c #AB9F1E",
"I 	c #F2E011",
"J 	c #CDC00F",
"K 	c #F5E809",
"L 	c #EADF09",
"M 	c #FFF30A",
"N 	c #B4A81B",
"O 	c #EEDC12",
"P 	c #D2C313",
"Q 	c #F6E909",
"R 	c #FCF00A",
"S 	c #FCEF0A",
"T 	c #F8E708",
"U 	c #F2D907",
"V 	c #F3D707",
"W 	c #F6DE09",
"X 	c #FCEE0C",
"Y 	c #FFF20A",
"Z 	c #A99C1D",
"` 	c #D1C215",
" .	c #EDDF0C",
"..	c #FDEE0C",
"+.	c #CABA19",
"@.	c #FFEB10",
"#.	c #CBBC0D",
"$.	c #FAEB0B",
"%.	c #FCED0B",
"&.	c #FCED0C",
"*.	c #FFEF0B",
"=.	c #CCBD16",
"-.	c #DDCD0F",
";.	c #E7D90B",
">.	c #F2E50D",
",.	c #BEB119",
"'.	c #A6991B",
").	c #F0E209",
"!.	c #FDEF0C",
"~.	c #F5DD09",
"{.	c #ECD108",
"].	c #F2D208",
"^.	c #FCEB0E",
"/.	c #FCEA0D",
"(.	c #FCEB0D",
"_.	c #D4C414",
":.	c #FFE911",
"<.	c #E3D016",
"[.	c #D6C710",
"}.	c #FEEC0D",
"|.	c #E7D70C",
"1.	c #CBBC0E",
"2.	c #D0C20B",
"3.	c #FCEA0E",
"4.	c #F0E00D",
"5.	c #CDBE0E",
"6.	c #C5B70B",
"7.	c #FFEE0D",
"8.	c #D0C216",
"9.	c #C0AF1D",
"0.	c #FEE812",
"a.	c #BDAF0C",
"b.	c #F1D108",
"c.	c #F0CE08",
"d.	c #F6DC0C",
"e.	c #FBE80F",
"f.	c #E5D411",
"g.	c #E7D117",
"h.	c #FBE413",
"i.	c #F6DF15",
"j.	c #D3C210",
"k.	c #FDE90F",
"l.	c #FDEA0F",
"m.	c #FCE80F",
"n.	c #FBE80E",
"o.	c #FCE90F",
"p.	c #CFBE18",
"q.	c #D7C319",
"r.	c #FCE512",
"s.	c #FFEC14",
"t.	c #BCAD0B",
"u.	c #FBE70F",
"v.	c #F6DA0B",
"w.	c #EDCC09",
"x.	c #EFC809",
"y.	c #FBE611",
"z.	c #FAE510",
"A.	c #FAE610",
"B.	c #F8E310",
"C.	c #D1BC1B",
"D.	c #FBE214",
"E.	c #EFD716",
"F.	c #DFCC0F",
"G.	c #FBE610",
"H.	c #F3DF11",
"I.	c #BEAB1E",
"J.	c #FCE313",
"K.	c #FAE214",
"L.	c #FBE215",
"M.	c #CCBB0D",
"N.	c #FBE511",
"O.	c #FBE510",
"P.	c #EBC509",
"Q.	c #F2CE0C",
"R.	c #FAE313",
"S.	c #FAE312",
"T.	c #FAE212",
"U.	c #E4CE16",
"V.	c #DEC71A",
"W.	c #FAE015",
"X.	c #FCE115",
"Y.	c #CFBA12",
"Z.	c #FBE312",
"`.	c #FBE213",
" +	c #FBE212",
".+	c #C2AF1C",
"++	c #FADF14",
"@+	c #FFE516",
"#+	c #CAB70F",
"$+	c #FBE412",
"%+	c #F2CD0C",
"&+	c #EEC10B",
"*+	c #F5D411",
"=+	c #FAE014",
"-+	c #FAE114",
";+	c #C4AF1D",
">+	c #F8DC16",
",+	c #FADE16",
"'+	c #CFBA13",
")+	c #FAE013",
"!+	c #FDE313",
"~+	c #C3AE1E",
"{+	c #FCE016",
"]+	c #CEB813",
"^+	c #FCE214",
"/+	c #F4D210",
"(+	c #E7BC0B",
"_+	c #ECBC0B",
":+	c #F7D814",
"<+	c #FADE15",
"[+	c #F9DE16",
"}+	c #FFE514",
"|+	c #B49F21",
"1+	c #FBDD16",
"2+	c #FADC17",
"3+	c #CDB613",
"4+	c #F8DC15",
"5+	c #F9DE15",
"6+	c #FDE115",
"7+	c #C8B11D",
"8+	c #FCDE16",
"9+	c #DEC417",
"0+	c #EFD414",
"a+	c #F9DD16",
"b+	c #F6D613",
"c+	c #E4B60B",
"d+	c #EAB70C",
"e+	c #F9DA17",
"f+	c #F9DB17",
"g+	c #CBB31E",
"h+	c #EBCD1A",
"i+	c #FADB18",
"j+	c #FADA18",
"k+	c #F9DA18",
"l+	c #C6AD14",
"m+	c #E2C71B",
"n+	c #D1B71D",
"o+	c #CEB51E",
"p+	c #CEB61D",
"q+	c #CFB51E",
"r+	c #D2B81D",
"s+	c #F6D816",
"t+	c #FBDD17",
"u+	c #CAB21E",
"v+	c #FCDD18",
"w+	c #CEB516",
"x+	c #FBDC17",
"y+	c #F9DB18",
"z+	c #F8D817",
"A+	c #E3B10C",
"B+	c #E8B10C",
"C+	c #FADC1A",
"D+	c #F9D918",
"E+	c #FFE117",
"F+	c #B19A24",
"G+	c #FBDA19",
"H+	c #F9D919",
"I+	c #F9D819",
"J+	c #FCDB19",
"K+	c #C1A814",
"L+	c #E9CB19",
"M+	c #D3B81C",
"N+	c #F8D71A",
"O+	c #CEB316",
"P+	c #CEB417",
"Q+	c #F6D61A",
"R+	c #D2B61E",
"S+	c #ECCE17",
"T+	c #CFB41E",
"U+	c #FAD919",
"V+	c #DABD19",
"W+	c #F1D218",
"X+	c #F8D919",
"Y+	c #F8D819",
"Z+	c #E0AB0C",
"`+	c #E7AC0D",
" @	c #FADA1C",
".@	c #F8D61A",
"+@	c #D7B91F",
"@@	c #E1C21E",
"#@	c #F9D71A",
"$@	c #F9D71B",
"%@	c #F9D61B",
"&@	c #FEDB1B",
"*@	c #BFA515",
"=@	c #FBD91B",
"-@	c #C7AB20",
";@	c #FEDB1A",
">@	c #C8AC16",
",@	c #FFDE19",
"'@	c #C8AC21",
")@	c #FCDA1C",
"!@	c #C6AB14",
"~@	c #DCBD1D",
"{@	c #EDCC1C",
"]@	c #F9D61A",
"^@	c #FDDA1B",
"/@	c #CDB017",
"(@	c #F8D51A",
"_@	c #DFA70D",
":@	c #E7AA0E",
"<@	c #F8D21C",
"[@	c #F8D31C",
"}@	c #F9D41C",
"|@	c #BFA423",
"1@	c #FBD71B",
"2@	c #F8D51C",
"3@	c #F9D51C",
"4@	c #F9D41B",
"5@	c #F8D51B",
"6@	c #FDD81D",
"7@	c #C0A416",
"8@	c #FAD51D",
"9@	c #C6A923",
"0@	c #FDD91B",
"a@	c #CEB01D",
"b@	c #C0A523",
"c@	c #D7B81E",
"d@	c #AE9513",
"e@	c #F5D11C",
"f@	c #F5D11B",
"g@	c #D1B322",
"h@	c #F9D51B",
"i@	c #F8D41C",
"j@	c #CDB019",
"k@	c #F7CF1A",
"l@	c #DDA30E",
"m@	c #E6A60F",
"n@	c #F4C81A",
"o@	c #F7D11E",
"p@	c #FAD41D",
"q@	c #C3A524",
"r@	c #F8D31D",
"s@	c #F8D21D",
"t@	c #E3C11B",
"u@	c #DCBA1A",
"v@	c #F9D31E",
"w@	c #C5A723",
"x@	c #FCD71C",
"y@	c #C1A317",
"z@	c #CCAC19",
"A@	c #EBC81E",
"B@	c #DAB922",
"C@	c #DFBC1C",
"D@	c #FDD51C",
"E@	c #C8AA23",
"F@	c #F9D31D",
"G@	c #D1B119",
"H@	c #F5CF1D",
"I@	c #F7D11D",
"J@	c #F3C61A",
"K@	c #DDA00F",
"L@	c #E6A410",
"M@	c #F0BC18",
"N@	c #F7CE1F",
"O@	c #FAD11F",
"P@	c #C7A724",
"Q@	c #FAD31D",
"R@	c #F8D11E",
"S@	c #D7B51B",
"T@	c #E8C31E",
"U@	c #F9D01F",
"V@	c #C4A425",
"W@	c #FED61D",
"X@	c #C7A71A",
"Y@	c #FED520",
"Z@	c #C8A723",
"`@	c #FCD41D",
" #	c #CAA91A",
".#	c #FFD51F",
"+#	c #C4A524",
"@#	c #F9D21E",
"##	c #F8D01E",
"$#	c #CEAD1A",
"%#	c #F4CB1F",
"&#	c #F7CE20",
"*#	c #EEB917",
"=#	c #D59810",
"-#	c #EAAB15",
";#	c #F7CD22",
">#	c #F8CD21",
",#	c #C9A724",
"'#	c #FAD21E",
")#	c #F8CF1F",
"!#	c #F7CF1F",
"~#	c #DCB81D",
"{#	c #E5BE1F",
"]#	c #F1C722",
"^#	c #BC9D27",
"/#	c #FED41F",
"(#	c #CEAC20",
"_#	c #C8A626",
":#	c #CCAB25",
"<#	c #F4CC1F",
"[#	c #B89819",
"}#	c #FFD320",
"|#	c #C0A126",
"1#	c #F8D01F",
"2#	c #C3A31A",
"3#	c #F8CE21",
"4#	c #F7CE22",
"5#	c #EAA814",
"6#	c #E39811",
"7#	c #F6C922",
"8#	c #F6C923",
"9#	c #D3AD25",
"0#	c #F4CA21",
"a#	c #F7CD20",
"b#	c #F2C921",
"c#	c #CFA91D",
"d#	c #D1AC24",
"e#	c #BD9C1C",
"f#	c #C2A01B",
"g#	c #C6A31C",
"h#	c #C8A51C",
"i#	c #BF9D1B",
"j#	c #BF9B1B",
"k#	c #F5C822",
"l#	c #C5A427",
"m#	c #F8CD20",
"n#	c #FCD121",
"o#	c #B8971A",
"p#	c #F8CB23",
"q#	c #F4C622",
"r#	c #DD9510",
"s#	c #E19713",
"t#	c #ECAD1A",
"u#	c #F6C725",
"v#	c #F3C423",
"w#	c #CFAA25",
"x#	c #F7CB21",
"y#	c #F7CC21",
"z#	c #FCCF22",
"A#	c #C29E1D",
"B#	c #F7C725",
"C#	c #F8C824",
"D#	c #F7C824",
"E#	c #F8C925",
"F#	c #F8C825",
"G#	c #F7C724",
"H#	c #CEA727",
"I#	c #EAC123",
"J#	c #E3BB20",
"K#	c #C39E1D",
"L#	c #EBAA1A",
"M#	c #C88611",
"N#	c #E19013",
"O#	c #F5C325",
"P#	c #F6C526",
"Q#	c #C69F23",
"R#	c #F3C724",
"S#	c #F7CA22",
"T#	c #F6CA22",
"U#	c #C39E1F",
"V#	c #F7C526",
"W#	c #F6C426",
"X#	c #F5C426",
"Y#	c #F5C526",
"Z#	c #F8C626",
"`#	c #B79529",
" $	c #F9CB22",
".$	c #FFD224",
"+$	c #917516",
"@$	c #F3C226",
"#$	c #F4C125",
"$$	c #DD8E12",
"%$	c #E69A18",
"&$	c #F6C529",
"*$	c #F2BF27",
"=$	c #B38F21",
"-$	c #F9C925",
";$	c #F6C824",
">$	c #F6C724",
",$	c #ECBF24",
"'$	c #CBA021",
")$	c #F5C228",
"!$	c #F5C128",
"~$	c #F5C227",
"{$	c #F5C127",
"]$	c #EBBA28",
"^$	c #C29D29",
"/$	c #F7C823",
"($	c #FFD125",
"_$	c #8B7016",
":$	c #D8AB23",
"<$	c #F7C529",
"[$	c #E69817",
"}$	c #DE8915",
"|$	c #EAA51F",
"1$	c #F5C02A",
"2$	c #E9B627",
"3$	c #A4811E",
"4$	c #F0C126",
"5$	c #F7C624",
"6$	c #F6C624",
"7$	c #BD9621",
"8$	c #F4BE29",
"9$	c #F4BF29",
"0$	c #F5BF2A",
"a$	c #F4BF2A",
"b$	c #F8C22A",
"c$	c #AF8B2C",
"d$	c #F6C525",
"e$	c #F6C625",
"f$	c #F8C725",
"g$	c #785E13",
"h$	c #C99D22",
"i$	c #F5C12B",
"j$	c #E9A01D",
"k$	c #D18214",
"l$	c #DD8414",
"m$	c #ECA823",
"n$	c #F5BD2C",
"o$	c #EDB72A",
"p$	c #9F7B1D",
"q$	c #AE8B1F",
"r$	c #FDCA29",
"s$	c #F6C427",
"t$	c #B98F22",
"u$	c #F6BE2C",
"v$	c #F4BC2B",
"w$	c #F4BD2B",
"x$	c #CEA02C",
"y$	c #D5AA29",
"z$	c #F7C525",
"A$	c #FFCE28",
"B$	c #A1801A",
"C$	c #6B5213",
"D$	c #D9A726",
"E$	c #F5BF2C",
"F$	c #EAA221",
"G$	c #D78014",
"H$	c #DB7F15",
"I$	c #E99D21",
"J$	c #F5BE2E",
"K$	c #F3B92D",
"L$	c #D6A427",
"M$	c #836418",
"N$	c #92721A",
"O$	c #BF9720",
"P$	c #ECBA2B",
"Q$	c #CD9D26",
"R$	c #F4BA2D",
"S$	c #F3BA2D",
"T$	c #E1AC2D",
"U$	c #C29A2F",
"V$	c #BD951E",
"W$	c #806516",
"X$	c #5B4511",
"Y$	c #B98D22",
"Z$	c #EEB52B",
"`$	c #E7981F",
" %	c #D67D15",
".%	c #DA7C17",
"+%	c #E2891B",
"@%	c #F2B42D",
"#%	c #F4B82F",
"$%	c #F3B72F",
"%%	c #E3AC2B",
"&%	c #B38622",
"*%	c #725516",
"=%	c #A37C20",
"-%	c #F2B72E",
";%	c #F4B82E",
">%	c #C99828",
",%	c #6C5114",
"'%	c #9C751E",
")%	c #D5A128",
"!%	c #EFB42E",
"~%	c #F4B92F",
"{%	c #F1B22C",
"]%	c #E3871A",
"^%	c #CE7615",
"/%	c #DA7616",
"(%	c #E69121",
"_%	c #F1AF2E",
":%	c #F5B932",
"<%	c #F3B531",
"[%	c #F3B530",
"}%	c #F1B430",
"|%	c #F3B430",
"1%	c #F2B430",
"2%	c #F0AE2D",
"3%	c #E58F20",
"4%	c #D87516",
"5%	c #CE7017",
"6%	c #D87116",
"7%	c #E07F1B",
"8%	c #E69224",
"9%	c #EBA02A",
"0%	c #EEA82D",
"a%	c #F1AF31",
"b%	c #F1AF30",
"c%	c #EEA72D",
"d%	c #EB9F29",
"e%	c #E69123",
"f%	c #E17E1B",
"g%	c #D47017",
"h%	c #C26A16",
"i%	c #D37019",
"j%	c #D36E18",
"k%	c #D36D18",
"l%	c #D36B16",
"m%	c #D36B17",
"n%	c #D26D18",
"o%	c #D06C17",
"p%	c #D06E18",
"                        . + @ + + + + #                         ",
"                  $ $ % & * = - ; - * > , ' '                   ",
"              ) ) ! ~ ~ ~ ~ ~ { { ] ] ~ ~ ^ / ) (               ",
"            _ : < [ [ [ [ } | 1 2 3 4 [ [ } 4 < 5 6             ",
"          7 8 9 0 a a b 0 c d e f g h c i 9 a 0 j k 7           ",
"        l m n n o o o p q r s t u v w x y o o o o o m z         ",
"      A B C D E F F G H I J F K L M N O P Q R F E D S T U       ",
"    V W X Y Z `  ...Y +.@.#.$.%.&.*.=.@.-.;.&.>.,.'.).!.~.{.    ",
"    ].^./.(._.:.<.[.}.|.1.2.(./.3.(.4.5.6.7.8.9.0.a.}.^.(.b.    ",
"  c.d.e.e.e.f.g.h.i.j.k.l.m.e.n.e.e.e.k.o.p.q.r.s.t.m.u.e.v.w.  ",
"  x.y.y.z.A.B.C.D.D.E.F.G.z.z.z.y.y.y.y.H.I.J.K.L.M.y.N.O.N.P.  ",
"  Q.R.S.R.T.U.V.W.W.X.Y.r.Z.S.Z.T.`. +S..+++W.W.@+#+Z.S.R.$+%+  ",
"&+*+=+=+=+-+;+>+,+,+,+'+)+=+=+W.)+)+)+!+~+{+,+,+{+]+^+)+)+=+/+(+",
"_+:+<+<+[+}+|+1+2+2+2+3+4+<+,+5+[+[+,+6+7+8+2+2+2+9+0+a+,+,+b+c+",
"d+e+f+f+f+g+h+i+j+k+k+l+m+n+o+p+q+r+s+t+u+v+j+j+j+v+w+x+y+y+z+A+",
"B+C+D+D+E+F+G+H+I+I+J+K+L+M+N+O+P+Q+R+S+T+U+I+H+I+H+V+W+D+X+Y+Z+",
"`+ @.@.@+@@@#@#@$@%@&@*@=@-@;@>@,@'@)@!@~@{@#@$@]@]@^@/@$@.@(@_@",
":@<@[@}@|@1@2@3@4@5@6@7@8@9@0@a@b@c@d@e@f@g@3@h@i@2@h@j@8@i@k@l@",
"m@n@o@p@q@p@r@r@s@r@t@u@v@w@x@y@z@A@B@C@D@E@F@r@r@r@r@G@H@I@J@K@",
"L@M@N@O@P@Q@R@R@R@R@S@T@U@V@W@X@Y@Z@`@ #.#+#@###R@R@R@$#%#&#*#=#",
"  -#;#>#,#'#)#!#!#!#~#{#]#^#/#(#_#:#<#[#}#|#1#!#)#!#!#2#3#4#5#  ",
"  6#7#8#9#0#a#a#a#a#b#c#d#e#f#g#h#i#j#8#k#l#m#a#a#a#n#o#p#q#r#  ",
"  s#t#u#v#w#x#y#x#x#z#A#B#C#D#E#F#D#G#u#H#I#y#x#x#x#J#K#u#L#M#  ",
"    N#O#P#Q#R#S#S#T#S#U#V#W#W#W#W#X#Y#Z#`# $T#S#T#.$+$@$#$$$    ",
"      %$&$*$=$-$;$>$;$,$'$)$!$~${$~${$]$^$/$;$;$($_$:$<$[$      ",
"      }$|$1$2$3$4$5$6$G#7$8$9$9$0$a$b$c$d$e$d$f$g$h$i$j$k$      ",
"        l$m$n$o$p$q$r$V#s$t$u$v$w$v$x$y$z$A$B$C$D$E$F$G$        ",
"          H$I$J$K$L$M$N$O$P$Q$R$S$T$U$V$W$X$Y$Z$J$`$ %          ",
"            .%+%@%#%$%%%&%*%=%-%;%>%,%'%)%!%~%{%]%^%            ",
"                /%(%_%:%<%[%}%|%[%}%1%[%:%2%3%4%                ",
"                  5%6%7%8%9%0%a%b%c%d%e%f%g%h%                  ",
"                        i%j%k%l%m%n%o%p%                        "};
